<svg id="Layer_1" data-name="Layer 1" xmlns="http://www.w3.org/2000/svg" viewBox="0 0 842 422"><defs><style>.cls-1{fill:#f79324;}.cls-2{fill:#2bb572;}.cls-3{fill:#29b473;}.cls-4{fill:#808285;}</style></defs><path class="cls-1" d="M226.09,110.15H220l-41.69,0-28.18,0H142l-6.12,13.42-5,10.9-3.83,8.42-2.39,5.28-14.55,32.45a5.38,5.38,0,0,0,4.75,7.55h0v0l.47-.69,26.3-37.13,1.29-1.86L155.9,130l.16-.28h.15L218,120.86l0,0a155.44,155.44,0,0,1-22.42,37.81c-23.26,28.81-53.25,44-78.19,52.06l-3,.86c-8.81,2.2-16.8,4.08-18,4.32-.69.13-1.35.29-2,.44-7.13,1.51-13.51,2.55-19,3.27a.4.4,0,0,1-.19,0c3-4,5.75-8.14,8.49-12.19L84,207c1.26-1.86,2.49-3.71,3.77-5.56a3.93,3.93,0,0,0-3.2-6.16,4,4,0,0,0-3.21,1.66L66.92,217.19l-2.77,3.86-2,2.83L69,228.44l19.89,13.32a4.19,4.19,0,0,0,2.29.69,4.1,4.1,0,0,0,2.27-7.51l-12.22-8.17c22.87-3.58,81.06-14.7,110.28-36.82s38.36-56,41.06-71.51a1.66,1.66,0,0,0,.09-.5,6.24,6.24,0,0,0,.1-1.13A6.68,6.68,0,0,0,226.09,110.15Zm-74.37,10.58L130.39,154l0,.06-.4.63,9.86-21.87h0l4.9-10.93h0l3.2-7.14,46.12-.09h.22Z"/><path class="cls-2" d="M87.54,311.85h6.13l41.69,0,28.18,0h8l6.13-13.42,5-10.9,3.83-8.42,2.39-5.28,14.54-32.45a5.37,5.37,0,0,0-4.74-7.55h0v0l-.47.69-26.3,37.13-1.29,1.86L157.73,292l-.16.28h-.16l-61.76,8.89,0,0a155.44,155.44,0,0,1,22.42-37.81c23.26-28.81,53.25-44,78.19-52.06l3-.86c8.82-2.2,16.8-4.08,18-4.32.69-.13,1.35-.29,2-.44,7.13-1.51,13.51-2.55,19-3.27a.44.44,0,0,1,.19,0c-3,4-5.75,8.14-8.48,12.19l-.35.5c-1.25,1.86-2.48,3.71-3.77,5.56a3.93,3.93,0,0,0,3.21,6.16,4,4,0,0,0,3.2-1.66l14.49-20.27,2.76-3.86,2-2.83-6.82-4.56-19.88-13.32a4.2,4.2,0,0,0-2.3-.69,4.1,4.1,0,0,0-2.26,7.51l12.22,8.17c-22.87,3.58-81.06,14.7-110.28,36.82s-38.36,56-41.06,71.51a1.43,1.43,0,0,0-.1.5,7.27,7.27,0,0,0-.09,1.13A6.68,6.68,0,0,0,87.54,311.85Zm74.37-10.58L183.24,268l0-.06.41-.63-9.86,21.87h0l-4.9,10.93h0l-3.2,7.14-46.13.09h-.22Z"/><path class="cls-1" d="M316.29,167.84l-2,11.7h18.34l-1.85,10.33H312.44l-2.24,12.57H331L329,213.25H294.58L304.52,157H339L337,167.84Z"/><path class="cls-1" d="M352.49,197.88a4.92,4.92,0,0,0-.08,1,2.45,2.45,0,0,0,.84,2.08,4.6,4.6,0,0,0,2.76.64h4.89l-2.09,11.61h-7q-13.46,0-13.46-11.29a28,28,0,0,1,.4-4.24L342,179.94h-5.45l2-11.38H344l1.92-10.89h13.7l-1.93,10.89h9l-2,11.38h-9Z"/><path class="cls-1" d="M408.19,171.85q3.8,3.77,3.8,10.49a26.09,26.09,0,0,1-.48,4.8l-4.64,26.11H393.25L397.58,189a14.08,14.08,0,0,0,.24-2.41,7,7,0,0,0-1.88-5.2,7.19,7.19,0,0,0-5.25-1.84A9.6,9.6,0,0,0,384,182a11.92,11.92,0,0,0-3.52,7v-.16l-4.33,24.42H362.42L372.91,154h13.7L383,174.49a18.78,18.78,0,0,1,6.49-4.68,20.11,20.11,0,0,1,8.33-1.73Q404.39,168.08,408.19,171.85Z"/><path class="cls-1" d="M418.4,178.73a25.11,25.11,0,0,1,8.49-8,21,21,0,0,1,10.49-2.81,15.2,15.2,0,0,1,7.93,1.92,11.49,11.49,0,0,1,4.64,5l1.13-6.33h13.69l-7.93,44.69H443.15l1.2-6.32a19.13,19.13,0,0,1-6.49,5,19.43,19.43,0,0,1-8.65,1.92,16.1,16.1,0,0,1-8.37-2.16,14.5,14.5,0,0,1-5.64-6.13,20.37,20.37,0,0,1-2-9.33,33.22,33.22,0,0,1,.48-5.44A30.93,30.93,0,0,1,418.4,178.73Zm29,9.54a8.25,8.25,0,0,0-2.28-6.17,7.92,7.92,0,0,0-5.81-2.24,11.11,11.11,0,0,0-7.45,2.92,13.24,13.24,0,0,0-4.24,8.05,16.16,16.16,0,0,0-.24,2.64,8.39,8.39,0,0,0,2.28,6.21,7.77,7.77,0,0,0,5.73,2.28,11.06,11.06,0,0,0,7.45-3,13.79,13.79,0,0,0,4.32-8.09A16.16,16.16,0,0,0,447.39,188.27Z"/><path class="cls-1" d="M508.5,171.85q3.84,3.77,3.84,10.49a26.09,26.09,0,0,1-.48,4.8l-4.64,26.11H493.6L497.93,189a14.08,14.08,0,0,0,.24-2.41,7,7,0,0,0-1.88-5.2,7.19,7.19,0,0,0-5.25-1.84,9.6,9.6,0,0,0-6.73,2.48,11.92,11.92,0,0,0-3.52,7v-.4l-4.33,24.66H462.77l7.85-44.69h13.69l-1,6a19.59,19.59,0,0,1,14.66-6.49Q504.65,168.08,508.5,171.85Z"/><path class="cls-3" d="M586.35,157l-9.94,56.22H562.72l6-33.71-18.59,33.71h-11l-6.73-33.88-5.92,33.88h-13.7L522.67,157h16.18l9,38.92L570.25,157Z"/><path class="cls-3" d="M592.43,211.57A16.65,16.65,0,0,1,585.5,205a19.47,19.47,0,0,1-2.44-9.85,27.13,27.13,0,0,1,3.61-13.85,25.85,25.85,0,0,1,9.93-9.81,28.14,28.14,0,0,1,14.09-3.57A21.81,21.81,0,0,1,621,170.29a17,17,0,0,1,7,6.6,19.12,19.12,0,0,1,2.48,9.85,26.93,26.93,0,0,1-3.64,13.9,26,26,0,0,1-10,9.73,28.72,28.72,0,0,1-14.14,3.52A22,22,0,0,1,592.43,211.57Zm18.22-11.49a13.6,13.6,0,0,0,4.17-5.29A16.19,16.19,0,0,0,616.3,188a8.34,8.34,0,0,0-2.16-6.16,7.41,7.41,0,0,0-5.45-2.16,9.53,9.53,0,0,0-6.05,2,13.61,13.61,0,0,0-4,5.32,17,17,0,0,0-1.44,6.89,8.28,8.28,0,0,0,2.08,6.05,7.22,7.22,0,0,0,5.37,2.12A9.73,9.73,0,0,0,610.65,200.08Z"/><path class="cls-3" d="M675,171.85q3.86,3.77,3.85,10.49a26.09,26.09,0,0,1-.48,4.8l-4.65,26.11H660.11L664.43,189a14.08,14.08,0,0,0,.24-2.41,7,7,0,0,0-1.88-5.2,7.18,7.18,0,0,0-5.25-1.84,9.56,9.56,0,0,0-6.72,2.48,11.93,11.93,0,0,0-3.53,7v-.4L643,213.25h-13.7l7.85-44.69h13.7l-1,6a19.55,19.55,0,0,1,14.65-6.49Q671.17,168.08,675,171.85Z"/><path class="cls-3" d="M720.85,172.61q5.08,4.68,5.09,12.77a25,25,0,0,1-.4,4.73,30.9,30.9,0,0,1-1,3.92h-31a10.78,10.78,0,0,0-.08,1.52,6.54,6.54,0,0,0,7,7.21,8.74,8.74,0,0,0,7.85-4.32H723a24.89,24.89,0,0,1-9.37,11.13A25.74,25.74,0,0,1,699,213.89q-8.65,0-13.82-4.8T680.05,196a31.37,31.37,0,0,1,5.44-17.3,25.42,25.42,0,0,1,9.38-8,27,27,0,0,1,12.25-2.81Q715.78,167.92,720.85,172.61Zm-8.61,12.93a6.12,6.12,0,0,0-2-4.92A7.79,7.79,0,0,0,705,178.9a9.7,9.7,0,0,0-6.21,2.12,11.85,11.85,0,0,0-3.88,6h17.21A12.23,12.23,0,0,0,712.24,185.54Z"/><path class="cls-3" d="M742.68,168.56l5.44,27.95,15.22-27.95h14.82l-39.65,65.92H723.78L738,211.73l-10.57-43.17Z"/><path class="cls-4" d="M310.68,234.44v2.48h-6.37v20.91h-3.05V236.92h-6.41v-2.48Z"/><path class="cls-4" d="M320.63,240a7.13,7.13,0,0,1,3.64-.88v3.16h-.8c-3.42,0-5.14,1.86-5.14,5.57v10h-3.05V239.44h3.05v3A5.91,5.91,0,0,1,320.63,240Z"/><path class="cls-4" d="M328.64,243.62a8.33,8.33,0,0,1,3.13-3.31,8.65,8.65,0,0,1,4.45-1.17,8.16,8.16,0,0,1,4.19,1,6.81,6.81,0,0,1,2.65,2.62v-3.36h3.09v18.39h-3.09v-3.42a7.11,7.11,0,0,1-2.7,2.66,8,8,0,0,1-4.17,1.06,8.28,8.28,0,0,1-4.43-1.21,8.4,8.4,0,0,1-3.12-3.39,10.55,10.55,0,0,1-1.15-5A10.34,10.34,0,0,1,328.64,243.62ZM342.23,245a6,6,0,0,0-2.27-2.37,6.16,6.16,0,0,0-3.14-.82,6.25,6.25,0,0,0-3.12.8,5.87,5.87,0,0,0-2.25,2.35,7.48,7.48,0,0,0-.83,3.63,7.62,7.62,0,0,0,.83,3.67,5.88,5.88,0,0,0,2.25,2.38,6.07,6.07,0,0,0,3.12.83,6.17,6.17,0,0,0,3.14-.83,5.86,5.86,0,0,0,2.27-2.38,7.67,7.67,0,0,0,.83-3.64A7.56,7.56,0,0,0,342.23,245Z"/><path class="cls-4" d="M366.55,241.14a7.78,7.78,0,0,1,2.08,5.85v10.84h-3v-10.4a5.93,5.93,0,0,0-1.37-4.21,4.9,4.9,0,0,0-3.76-1.46,5,5,0,0,0-3.84,1.51,6.15,6.15,0,0,0-1.43,4.39v10.17h-3V239.44h3v2.62a6.07,6.07,0,0,1,2.47-2.18,7.56,7.56,0,0,1,3.44-.78A7.42,7.42,0,0,1,366.55,241.14Z"/><path class="cls-4" d="M377.19,257.41a6.39,6.39,0,0,1-2.65-2,5.34,5.34,0,0,1-1.07-3h3.15a3.09,3.09,0,0,0,1.29,2.24,4.88,4.88,0,0,0,3,.88,4.45,4.45,0,0,0,2.75-.77,2.38,2.38,0,0,0,1-1.95,1.93,1.93,0,0,0-1.08-1.8,15,15,0,0,0-3.32-1.15,24.77,24.77,0,0,1-3.34-1.09,5.87,5.87,0,0,1-2.21-1.65,4.27,4.27,0,0,1-.93-2.87,4.33,4.33,0,0,1,.84-2.58,5.74,5.74,0,0,1,2.39-1.86,8.5,8.5,0,0,1,3.52-.69,7.51,7.51,0,0,1,4.93,1.54,5.58,5.58,0,0,1,2,4.23h-3.06a3.18,3.18,0,0,0-1.16-2.32,4.31,4.31,0,0,0-2.83-.87,4.38,4.38,0,0,0-2.62.71,2.16,2.16,0,0,0-1,1.84,2,2,0,0,0,.59,1.5,4.37,4.37,0,0,0,1.47.94c.59.23,1.42.49,2.47.78a26.4,26.4,0,0,1,3.22,1.06,5.66,5.66,0,0,1,2.13,1.56,4.17,4.17,0,0,1,.92,2.72,4.66,4.66,0,0,1-.84,2.72,5.55,5.55,0,0,1-2.36,1.89,8.46,8.46,0,0,1-3.51.69A9.52,9.52,0,0,1,377.19,257.41Z"/><path class="cls-4" d="M400.31,242h-3.86v15.87H393.4V242H391v-2.52h2.39v-1.31a5.77,5.77,0,0,1,1.59-4.51q1.59-1.43,5.12-1.43v2.55a4.1,4.1,0,0,0-2.84.79,3.48,3.48,0,0,0-.82,2.6v1.31h3.86Z"/><path class="cls-4" d="M421.38,249.77H406.69a5.78,5.78,0,0,0,6,5.78,5.59,5.59,0,0,0,3.3-.93,4.83,4.83,0,0,0,1.87-2.46h3.28a7.87,7.87,0,0,1-2.95,4.31,8.88,8.88,0,0,1-5.5,1.66A9.29,9.29,0,0,1,408,257a8.34,8.34,0,0,1-3.24-3.34,11.36,11.36,0,0,1,0-10,8,8,0,0,1,3.2-3.3,9.47,9.47,0,0,1,4.75-1.16,9.24,9.24,0,0,1,4.63,1.14,7.87,7.87,0,0,1,3.1,3.14,9.2,9.2,0,0,1,1.09,4.51A17,17,0,0,1,421.38,249.77Zm-3.82-5.48a5,5,0,0,0-2.1-1.91,6.48,6.48,0,0,0-2.94-.66,5.64,5.64,0,0,0-3.94,1.48,6,6,0,0,0-1.86,4.09h11.61A5.67,5.67,0,0,0,417.56,244.29Z"/><path class="cls-4" d="M431.7,240a7.13,7.13,0,0,1,3.64-.88v3.16h-.8q-5.15,0-5.14,5.57v10h-3V239.44h3v3A5.85,5.85,0,0,1,431.7,240Z"/><path class="cls-4" d="M443.43,242V252.8a2.57,2.57,0,0,0,.57,1.89,2.81,2.81,0,0,0,2,.55h2.25v2.59h-2.76a5.43,5.43,0,0,1-3.82-1.18,5,5,0,0,1-1.28-3.85V242H438v-2.52h2.38v-4.63h3.06v4.63h4.8V242Z"/><path class="cls-4" d="M462.55,243.62a8.35,8.35,0,0,1,3.14-3.31,8.71,8.71,0,0,1,4.48-1.17,8.38,8.38,0,0,1,4,1,7.15,7.15,0,0,1,2.81,2.6V233h3.09v24.83H477v-3.46a7.08,7.08,0,0,1-2.68,2.7,8,8,0,0,1-4.16,1.06,8.38,8.38,0,0,1-7.59-4.6,10.54,10.54,0,0,1-1.14-5A10.33,10.33,0,0,1,462.55,243.62ZM476.14,245a5.94,5.94,0,0,0-2.26-2.37,6.16,6.16,0,0,0-3.14-.82,6.25,6.25,0,0,0-3.12.8,5.87,5.87,0,0,0-2.25,2.35,7.49,7.49,0,0,0-.84,3.63,7.62,7.62,0,0,0,.84,3.67,5.88,5.88,0,0,0,2.25,2.38,6.07,6.07,0,0,0,3.12.83,6.17,6.17,0,0,0,3.14-.83,5.84,5.84,0,0,0,2.26-2.38,7.55,7.55,0,0,0,.84-3.64A7.45,7.45,0,0,0,476.14,245Z"/><path class="cls-4" d="M486.55,234.44h3.39l-3.23,7.62h-2.14Z"/><path class="cls-4" d="M494.26,243.62a8.35,8.35,0,0,1,3.14-3.31,8.62,8.62,0,0,1,4.45-1.17,8.16,8.16,0,0,1,4.19,1,6.81,6.81,0,0,1,2.65,2.62v-3.36h3.09v18.39h-3.09v-3.42a7.11,7.11,0,0,1-2.7,2.66,8,8,0,0,1-4.18,1.06,8.32,8.32,0,0,1-7.55-4.6,10.54,10.54,0,0,1-1.14-5A10.33,10.33,0,0,1,494.26,243.62ZM507.85,245a5.94,5.94,0,0,0-2.26-2.37,6.16,6.16,0,0,0-3.14-.82,6.25,6.25,0,0,0-3.12.8,5.87,5.87,0,0,0-2.25,2.35,7.49,7.49,0,0,0-.84,3.63,7.62,7.62,0,0,0,.84,3.67,5.88,5.88,0,0,0,2.25,2.38,6.07,6.07,0,0,0,3.12.83,6.17,6.17,0,0,0,3.14-.83,5.84,5.84,0,0,0,2.26-2.38,7.55,7.55,0,0,0,.84-3.64A7.45,7.45,0,0,0,507.85,245Z"/><path class="cls-4" d="M523.14,240a7.11,7.11,0,0,1,3.64-.88v3.16H526q-5.13,0-5.13,5.57v10h-3.05V239.44h3.05v3A5.85,5.85,0,0,1,523.14,240Z"/><path class="cls-4" d="M542.9,240.18a6.8,6.8,0,0,1,2.67,2.62v-3.36h3.09v18.79a9.14,9.14,0,0,1-1.08,4.48,7.62,7.62,0,0,1-3.07,3.07,9.4,9.4,0,0,1-4.64,1.11,10.24,10.24,0,0,1-6-1.71,6.73,6.73,0,0,1-2.85-4.67h3a4.81,4.81,0,0,0,2.08,2.7,6.77,6.77,0,0,0,3.8,1,5.63,5.63,0,0,0,4.11-1.58,6,6,0,0,0,1.59-4.43v-3.86a7.3,7.3,0,0,1-2.69,2.69,7.92,7.92,0,0,1-4.16,1.07,8.38,8.38,0,0,1-7.58-4.6,10.54,10.54,0,0,1-1.14-5,10.33,10.33,0,0,1,1.14-4.95,8.35,8.35,0,0,1,3.14-3.31,8.61,8.61,0,0,1,4.44-1.17A8.23,8.23,0,0,1,542.9,240.18Zm1.83,4.8a5.94,5.94,0,0,0-2.26-2.37,6.45,6.45,0,0,0-6.26,0,5.87,5.87,0,0,0-2.25,2.35,7.49,7.49,0,0,0-.84,3.63,7.62,7.62,0,0,0,.84,3.67,5.88,5.88,0,0,0,2.25,2.38,6.07,6.07,0,0,0,3.12.83,6.19,6.19,0,0,0,3.14-.83,5.84,5.84,0,0,0,2.26-2.38,7.55,7.55,0,0,0,.84-3.64A7.45,7.45,0,0,0,544.73,245Z"/><path class="cls-4" d="M571.34,249.77h-14.7a6,6,0,0,0,1.87,4.25,5.92,5.92,0,0,0,4.11,1.53,5.59,5.59,0,0,0,3.3-.93,4.76,4.76,0,0,0,1.86-2.46h3.29a7.87,7.87,0,0,1-3,4.31,8.9,8.9,0,0,1-5.5,1.66,9.29,9.29,0,0,1-4.68-1.17,8.34,8.34,0,0,1-3.24-3.34,10.32,10.32,0,0,1-1.18-5,10.51,10.51,0,0,1,1.14-5,8,8,0,0,1,3.21-3.3,9.45,9.45,0,0,1,4.75-1.16,9.27,9.27,0,0,1,4.63,1.14,7.93,7.93,0,0,1,3.1,3.14,9.2,9.2,0,0,1,1.09,4.51A17,17,0,0,1,571.34,249.77Zm-3.82-5.48a5,5,0,0,0-2.1-1.91,6.51,6.51,0,0,0-2.94-.66,5.63,5.63,0,0,0-3.94,1.48,6,6,0,0,0-1.86,4.09h11.61A5.67,5.67,0,0,0,567.52,244.29Z"/><path class="cls-4" d="M590.7,241.14a7.78,7.78,0,0,1,2.08,5.85v10.84h-3v-10.4a5.93,5.93,0,0,0-1.37-4.21,4.9,4.9,0,0,0-3.76-1.46,5,5,0,0,0-3.84,1.51,6.15,6.15,0,0,0-1.43,4.39v10.17h-3.05V239.44h3.05v2.62a6,6,0,0,1,2.47-2.18,7.56,7.56,0,0,1,3.44-.78A7.43,7.43,0,0,1,590.7,241.14Z"/><path class="cls-4" d="M602.35,242V252.8a2.57,2.57,0,0,0,.57,1.89,2.81,2.81,0,0,0,2,.55h2.25v2.59h-2.76a5.43,5.43,0,0,1-3.82-1.18,5,5,0,0,1-1.28-3.85V242h-2.38v-2.52h2.38v-4.63h3.06v4.63h4.8V242Z"/></svg>